<svg width="223" height="31" viewBox="0 0 223 31" fill="none" xmlns="http://www.w3.org/2000/svg">
<path d="M6.30078 18V30H0.700781V2H17.8608V6.8H6.30078V13.2H15.4608V18H6.30078ZM27.3433 10V30H21.8633V10H27.3433ZM21.6633 6.28V0.799999H27.5433V6.28H21.6633ZM51.1477 12.48V30H45.6677V14.48H38.8277V30H33.3477V9.8H37.8677L38.8277 11.44L41.6677 9.8H46.5077L51.1477 12.48ZM61.7767 9.8H67.0167L69.8567 11.44V0.799999H75.3367V30.2H70.8167L69.8567 28.56L67.0167 30.2H61.7767L57.1367 27.52V12.48L61.7767 9.8ZM69.8567 25.52V14.48H62.6167V25.52H69.8567ZM115.706 30V11.52H115.626L109.306 30H103.986L97.6261 11.28H97.5461V30H92.1461V2H99.5861L106.626 22.6H106.706L113.706 2H121.106V30H115.706ZM145.288 27.52L140.648 30.2H132.128L127.488 27.52V12.48L132.128 9.8H140.648L145.288 12.48V27.52ZM132.968 14.48V25.52H139.808V14.48H132.968ZM154.357 10L158.957 23.12H159.037L163.677 10H169.157L161.757 30H156.277L148.877 10H154.357ZM178.242 10V30H172.762V10H178.242ZM172.562 6.28V0.799999H178.442V6.28H172.562ZM200.846 25.32V30H188.886L184.246 27.32V12.48L188.886 9.8H196.206L200.846 12.48V22.04H189.726V25.32H200.846ZM189.726 14.48V17.92H195.366V14.48H189.726ZM222.703 20.16V27.32L218.063 30H206.863V25.32H217.223V22.24H211.503L206.863 19.56V12.68L211.503 10H222.303V14.68H212.343V17.48H218.063L222.703 20.16Z" fill="url(#paint0_linear_53_5)"/>
<defs>
<linearGradient id="paint0_linear_53_5" x1="-3" y1="2" x2="230.61" y2="38.3981" gradientUnits="userSpaceOnUse">
<stop stop-color="#E91DED"/>
<stop offset="0.516573" stop-color="#6D6BBF"/>
<stop offset="1" stop-color="#0CA938"/>
</linearGradient>
</defs>
</svg>
